<svg xmlns="http://www.w3.org/2000/svg" viewBox="0 0 200 48" width="200" height="48">
  <path d="M3.68 32L1.98 32L1.98 15.49L3.68 15.49L3.68 17.41L3.78 17.41Q4.16 16.45 4.91 15.78Q5.66 15.10 7.04 15.10Q8.45 15.10 9.22 15.79Q9.98 16.48 10.18 17.70L10.24 17.70Q10.69 16.58 11.52 15.84Q12.35 15.10 13.82 15.10Q15.74 15.10 16.50 16.37Q17.25 17.63 17.25 20.03L17.25 32L15.55 32L15.55 20.32Q15.55 18.30 14.99 17.47Q14.43 16.64 13.22 16.64Q12.06 16.64 11.26 17.42Q10.46 18.21 10.46 19.81L10.46 32L8.77 32L8.77 20.32Q8.77 18.30 8.21 17.47Q7.65 16.64 6.43 16.64Q5.28 16.64 4.48 17.42Q3.68 18.21 3.68 19.81L3.68 32M29.06 32.38Q25.60 32.38 23.63 30.13Q21.66 27.87 21.66 23.78Q21.66 21.73 22.18 20.11Q22.69 18.50 23.63 17.39Q24.58 16.29 25.92 15.70Q27.26 15.10 28.90 15.10Q30.56 15.10 31.87 15.70Q33.18 16.29 34.10 17.38Q35.01 18.46 35.49 19.97Q35.97 21.47 35.97 23.30L35.97 24.10L23.58 24.10L23.58 24.90Q23.58 27.55 25.02 29.17Q26.46 30.78 29.06 30.78Q30.88 30.78 32.18 29.95Q33.47 29.12 34.18 27.49L35.55 28.35Q34.82 30.18 33.15 31.28Q31.49 32.38 29.06 32.38M28.90 16.64Q27.68 16.64 26.70 17.07Q25.73 17.50 25.04 18.27Q24.35 19.04 23.97 20.13Q23.58 21.22 23.58 22.53L23.58 22.72L34.02 22.72L34.02 22.46Q34.02 19.78 32.66 18.21Q31.30 16.64 28.90 16.64M42.08 32L40.38 32L40.38 15.49L42.08 15.49L42.08 17.41L42.18 17.41Q42.56 16.45 43.31 15.78Q44.06 15.10 45.44 15.10Q46.85 15.10 47.62 15.79Q48.38 16.48 48.58 17.70L48.64 17.70Q49.09 16.58 49.92 15.84Q50.75 15.10 52.22 15.10Q54.14 15.10 54.90 16.37Q55.65 17.63 55.65 20.03L55.65 32L53.95 32L53.95 20.32Q53.95 18.30 53.39 17.47Q52.83 16.64 51.62 16.64Q50.46 16.64 49.66 17.42Q48.86 18.21 48.86 19.81L48.86 32L47.17 32L47.17 20.32Q47.17 18.30 46.61 17.47Q46.05 16.64 44.83 16.64Q43.68 16.64 42.88 17.42Q42.08 18.21 42.08 19.81L42.08 32M67.20 32.38Q63.81 32.38 61.90 30.11Q60 27.84 60 23.74Q60 19.65 61.90 17.38Q63.81 15.10 67.20 15.10Q70.59 15.10 72.50 17.38Q74.40 19.65 74.40 23.74Q74.40 27.84 72.50 30.11Q70.59 32.38 67.20 32.38M67.20 30.78Q69.63 30.78 71.04 29.25Q72.45 27.71 72.45 24.77L72.45 22.72Q72.45 19.78 71.04 18.24Q69.63 16.70 67.20 16.70Q64.77 16.70 63.36 18.24Q61.95 19.78 61.95 22.72L61.95 24.77Q61.95 27.71 63.36 29.25Q64.77 30.78 67.20 30.78M79.30 32L79.30 30.43L84.48 30.43L84.48 17.06L79.30 17.06L79.30 15.49L86.30 15.49L86.30 19.26L86.43 19.26Q86.98 17.54 88.30 16.51Q89.63 15.49 91.81 15.49L94.66 15.49L94.66 17.28L91.26 17.28Q89.02 17.28 87.66 18.61Q86.30 19.94 86.30 22.18L86.30 30.43L93.02 30.43L93.02 32L79.30 32M105.70 29.34L111.30 15.49L113.12 15.49L104.51 36.48Q104.10 37.47 103.47 37.94Q102.85 38.40 101.54 38.40L98.78 38.40L98.78 36.83L102.53 36.83L104.70 31.55L98.08 15.49L99.97 15.49L105.57 29.34" fill="#f8fafc"></path>
  <path d="M123.52 32L123.52 28.77L128.58 28.77L128.58 18.72L123.20 18.72L123.20 15.49L128.58 15.49L128.58 12.80Q128.58 11.81 128.85 10.99Q129.12 10.18 129.70 9.58Q130.27 8.99 131.15 8.66Q132.03 8.32 133.22 8.32L138.78 8.32L138.78 11.55L132.67 11.55L132.67 15.49L138.78 15.49L138.78 18.72L132.67 18.72L132.67 28.77L138.05 28.77L138.05 32L123.52 32M149.92 32.38Q148.03 32.38 146.54 31.78Q145.06 31.17 144.02 30.05Q142.98 28.93 142.42 27.33Q141.86 25.73 141.86 23.74Q141.86 21.76 142.42 20.16Q142.98 18.56 144.02 17.44Q145.06 16.32 146.54 15.71Q148.03 15.10 149.92 15.10Q151.78 15.10 153.28 15.71Q154.78 16.32 155.82 17.44Q156.86 18.56 157.42 20.16Q157.98 21.76 157.98 23.74Q157.98 25.73 157.42 27.33Q156.86 28.93 155.82 30.05Q154.78 31.17 153.28 31.78Q151.78 32.38 149.92 32.38M149.92 29.25Q151.68 29.25 152.70 28.18Q153.73 27.10 153.73 25.02L153.73 22.46Q153.73 20.38 152.70 19.31Q151.68 18.24 149.92 18.24Q148.16 18.24 147.14 19.31Q146.11 20.38 146.11 22.46L146.11 25.02Q146.11 27.10 147.14 28.18Q148.16 29.25 149.92 29.25M161.92 32L161.92 28.77L166.02 28.77L166.02 18.72L161.92 18.72L161.92 15.49L170.11 15.49L170.11 20L170.37 20Q170.59 19.14 170.99 18.32Q171.39 17.50 172.02 16.88Q172.64 16.26 173.54 15.87Q174.43 15.49 175.68 15.49L177.47 15.49L177.47 19.33L174.08 19.33Q172.22 19.33 171.17 20.42Q170.11 21.50 170.11 23.20L170.11 28.77L175.84 28.77L175.84 32L161.92 32M195.65 32L189.44 32Q187.07 32 185.95 30.75Q184.83 29.50 184.83 27.52L184.83 18.72L180.03 18.72L180.03 15.49L183.30 15.49Q184.29 15.49 184.70 15.09Q185.12 14.69 185.12 13.66L185.12 9.66L188.93 9.66L188.93 15.49L195.65 15.49L195.65 18.72L188.93 18.72L188.93 28.77L195.65 28.77" fill="#f8fafc"></path>
</svg>